# xmcd CD database file
#
# Track frame offsets:
#	150
#	24435
#	48257
#	76475
#	95291
#	120524
#	142837
#	171816
#	197023
#	220244
#	243417
#	275535
#
# Disc length: 4060 seconds
#
# Revision: 3
# Processed by: cddbd v1.5.2PL0 Copyright (c) Steve Scherf et al.
# Submitted via: CDex 1.70beta2
#
DISCID=9b0fda0c
DTITLE=Ken Follett - Nacht über den Wassern CD 3
DYEAR=2000
DGENRE=Hörbuch
TTITLE0=Nacht über den Wassern 3-25
TTITLE1=Nacht über den Wassern 3-26
TTITLE2=Nacht über den Wassern 3-27
TTITLE3=Nacht über den Wassern 3-28
TTITLE4=Nacht über den Wassern 3-29
TTITLE5=Nacht über den Wassern 3-30
TTITLE6=Nacht über den Wassern 3-31
TTITLE7=Nacht über den Wassern 3-32
TTITLE8=Nacht über den Wassern 3-33
TTITLE9=Nacht über den Wassern 3-34
TTITLE10=Nacht über den Wassern 3-35
TTITLE11=Nacht über den Wassern 3-36
EXTD=YEAR: 2000
EXTT0=
EXTT1=
EXTT2=
EXTT3=
EXTT4=
EXTT5=
EXTT6=
EXTT7=
EXTT8=
EXTT9=
EXTT10=
EXTT11=
PLAYORDER=
